<svg xmlns="http://www.w3.org/2000/svg" width="27" height="24.6" viewBox="0 0 27 24.6"><g transform="translate(-1.5 -3)"><path d="M3,3h9a8.292,8.292,0,0,1,5.18,1.735A5.815,5.815,0,0,1,19.5,9.3V26.1a1.5,1.5,0,1,1-3,0c0-1.138-1.374-2.1-3-2.1H3a1.5,1.5,0,0,1-1.5-1.5V4.5A1.5,1.5,0,0,1,3,3ZM16.5,21.677V9.3a2.881,2.881,0,0,0-1.194-2.223A5.288,5.288,0,0,0,12,6H4.5V21h9A6.843,6.843,0,0,1,16.5,21.677Z" fill="#b364a0"/><path d="M24,3h9a1.5,1.5,0,0,1,1.5,1.5v18A1.5,1.5,0,0,1,33,24H22.5c-1.626,0-3,.962-3,2.1a1.5,1.5,0,1,1-3,0V9.3a5.815,5.815,0,0,1,2.32-4.565A8.292,8.292,0,0,1,24,3Zm7.5,3H24a5.288,5.288,0,0,0-3.306,1.077A2.881,2.881,0,0,0,19.5,9.3V21.677a6.843,6.843,0,0,1,3-.677h9Z" transform="translate(-6)" fill="#b364a0"/></g></svg>