<svg xmlns="http://www.w3.org/2000/svg" width="24" height="23.999" viewBox="0 0 24 23.999"><path d="M20.958,5.251a3,3,0,0,0-1.453,5.6v5.278A5.079,5.079,0,0,1,14.255,21a5.1,5.1,0,0,1-5.245-4.65A7.52,7.52,0,0,0,15,9V1.716a1.124,1.124,0,0,0-.9-1.1L11.147.024A1.122,1.122,0,0,0,9.825.905l-.15.736a1.122,1.122,0,0,0,.881,1.322L12,3.249V8.94A4.5,4.5,0,1,1,3,9V3.254l1.439-.286a1.122,1.122,0,0,0,.881-1.322L5.17.91A1.122,1.122,0,0,0,3.848.029L.9.61A1.129,1.129,0,0,0,0,1.716V9a7.511,7.511,0,0,0,6,7.35A8.088,8.088,0,0,0,14.25,24a8.081,8.081,0,0,0,8.25-7.875V10.848a3,3,0,0,0-1.542-5.6ZM21,9a.75.75,0,1,1,.75-.75A.752.752,0,0,1,21,9Z" transform="translate(0 -0.002)" fill="#7d47a7"/></svg>