<svg xmlns="http://www.w3.org/2000/svg" xmlns:xlink="http://www.w3.org/1999/xlink" width="27" height="27" viewBox="0 0 27 27"><defs><filter id="a" x="0" y="0" width="27" height="27" filterUnits="userSpaceOnUse"><feOffset dy="1" input="SourceAlpha"/><feGaussianBlur stdDeviation="0.5" result="b"/><feFlood flood-color="#331f00" flood-opacity="0.153"/><feComposite operator="in" in2="b"/><feComposite in="SourceGraphic"/></filter></defs><g transform="matrix(1, 0, 0, 1, 0, 0)" filter="url(#a)"><path d="M15.75,21H.75a.752.752,0,0,0-.75.75v1.5A.752.752,0,0,0,.75,24h15a.752.752,0,0,0,.75-.75v-1.5A.752.752,0,0,0,15.75,21ZM23.119,5.03l-3.8-3.8a.753.753,0,0,0-1.059,0l-.53.53a.753.753,0,0,0,0,1.059L19.5,4.589V7.5a2.621,2.621,0,0,0,2.25,2.587v7.538a1.125,1.125,0,1,1-2.25,0v-1.5A4.125,4.125,0,0,0,15.375,12H15V3a3,3,0,0,0-3-3H4.5a3,3,0,0,0-3,3V19.5H15V14.25h.375a1.874,1.874,0,0,1,1.875,1.875v1.3a3.515,3.515,0,0,0,3.023,3.558A3.384,3.384,0,0,0,24,17.625V7.153a3.006,3.006,0,0,0-.881-2.123ZM12,9H4.5V3H12Z" transform="translate(1.5 0.5)" fill="#e8d35d"/></g></svg>