<svg xmlns="http://www.w3.org/2000/svg" xmlns:xlink="http://www.w3.org/1999/xlink" width="27" height="24" viewBox="0 0 27 24"><defs><filter id="a" x="0" y="0" width="27" height="24" filterUnits="userSpaceOnUse"><feOffset dy="1" input="SourceAlpha"/><feGaussianBlur stdDeviation="0.5" result="b"/><feFlood flood-color="#331f00" flood-opacity="0.153"/><feComposite operator="in" in2="b"/><feComposite in="SourceGraphic"/></filter></defs><g transform="matrix(1, 0, 0, 1, 0, 0)" filter="url(#a)"><path d="M22.875,12.75H3.75V6a1.5,1.5,0,0,1,2.766-.8A3.186,3.186,0,0,0,6.837,9.09a.562.562,0,0,0,.023.77l.53.53a.563.563,0,0,0,.8,0L12.64,5.936a.563.563,0,0,0,0-.8l-.53-.53a.562.562,0,0,0-.77-.023,3.181,3.181,0,0,0-3.008-.72A3.748,3.748,0,0,0,1.5,6v6.75H1.125A1.125,1.125,0,0,0,0,13.875v.75A1.125,1.125,0,0,0,1.125,15.75H1.5v1.5A4.488,4.488,0,0,0,3,20.6v1.521A1.125,1.125,0,0,0,4.125,23.25h.75A1.125,1.125,0,0,0,6,22.125V21.75H18v.375a1.125,1.125,0,0,0,1.125,1.125h.75A1.125,1.125,0,0,0,21,22.125V20.6a4.488,4.488,0,0,0,1.5-3.354v-1.5h.375A1.125,1.125,0,0,0,24,14.625v-.75A1.125,1.125,0,0,0,22.875,12.75Z" transform="translate(1.5 -1.75)" fill="#5683d6"/></g></svg>