<svg xmlns="http://www.w3.org/2000/svg" width="24" height="12.002" viewBox="0 0 24 12.002"><path d="M18,6.75H6a6,6,0,1,0,4.283,10.2h3.432A6,6,0,1,0,18,6.75ZM9.6,13.5a.451.451,0,0,1-.45.45H7.2V15.9a.451.451,0,0,1-.45.45h-1.5a.451.451,0,0,1-.45-.45v-1.95H2.85a.451.451,0,0,1-.45-.45V12a.451.451,0,0,1,.45-.45H4.8V9.6a.451.451,0,0,1,.45-.45h1.5a.451.451,0,0,1,.45.45v1.95h1.95A.451.451,0,0,1,9.6,12Zm6.9,2.55a1.8,1.8,0,1,1,1.8-1.8A1.8,1.8,0,0,1,16.5,16.051Zm3-3a1.8,1.8,0,1,1,1.8-1.8A1.8,1.8,0,0,1,19.5,13.051Z" transform="translate(0 -6.75)" fill="#b364a0"/></svg>