<svg xmlns="http://www.w3.org/2000/svg" xmlns:xlink="http://www.w3.org/1999/xlink" width="27" height="26.5" viewBox="0 0 27 26.5"><defs><filter id="a" x="0" y="0" width="27" height="26.5" filterUnits="userSpaceOnUse"><feOffset dy="1" input="SourceAlpha"/><feGaussianBlur stdDeviation="0.5" result="b"/><feFlood flood-color="#331f00" flood-opacity="0.153"/><feComposite operator="in" in2="b"/><feComposite in="SourceGraphic"/></filter></defs><g transform="matrix(1, 0, 0, 1, 0, 0)" filter="url(#a)"><path d="M21.682,6.72H19.22V4.107A3.353,3.353,0,0,0,15.873.72H9.568A3.353,3.353,0,0,0,6.22,4.107V6.72H3.758A2.982,2.982,0,0,0,.72,9.688v11.5A3.032,3.032,0,0,0,3.758,24.22H21.682a3.033,3.033,0,0,0,3.038-3.029V9.688A2.983,2.983,0,0,0,21.682,6.72ZM8.22,4.107A1.444,1.444,0,0,1,9.568,2.72h6.305A1.445,1.445,0,0,1,17.22,4.107V6.72h-9Zm10,13.613h-3.5v3.5h-4v-3.5H7.22v-4h3.5v-3.5h4v3.5h3.5Z" transform="translate(0.78 -0.22)" fill="#7d47a7"/></g></svg>