<svg xmlns="http://www.w3.org/2000/svg" xmlns:xlink="http://www.w3.org/1999/xlink" width="27" height="19.8" viewBox="0 0 27 19.8"><defs><filter id="a" x="0" y="0" width="27" height="19.8" filterUnits="userSpaceOnUse"><feOffset dy="1" input="SourceAlpha"/><feGaussianBlur stdDeviation="0.5" result="b"/><feFlood flood-color="#331f00" flood-opacity="0.153"/><feComposite operator="in" in2="b"/><feComposite in="SourceGraphic"/></filter></defs><g transform="matrix(1, 0, 0, 1, 0, 0)" filter="url(#a)"><path d="M23.809,6.858a17.436,17.436,0,0,0-23.618,0,.6.6,0,0,0-.013.862L1.462,8.994a.609.609,0,0,0,.84.014,14.387,14.387,0,0,1,19.4,0,.609.609,0,0,0,.84-.014L23.823,7.72a.6.6,0,0,0-.014-.862ZM12,14.25a2.4,2.4,0,1,0,2.4,2.4A2.4,2.4,0,0,0,12,14.25Zm7.6-3.135a11.512,11.512,0,0,0-15.2,0,.593.593,0,0,0-.021.868L5.67,13.258a.612.612,0,0,0,.827.03,8.446,8.446,0,0,1,11.006,0,.612.612,0,0,0,.827-.03l1.291-1.275A.593.593,0,0,0,19.6,11.115Z" transform="translate(1.5 -1.75)" fill="#6abeba"/></g></svg>