<svg xmlns="http://www.w3.org/2000/svg" width="24" height="19.2" viewBox="0 0 24 19.2"><path d="M21.933,11.917l-.562-1.405-1-2.491a5.573,5.573,0,0,0-5.2-3.52H8.825a5.573,5.573,0,0,0-5.2,3.52l-1,2.491-.562,1.405A3.193,3.193,0,0,0,0,14.9v2.4a3.174,3.174,0,0,0,.8,2.1v2.7a1.6,1.6,0,0,0,1.6,1.6H4a1.6,1.6,0,0,0,1.6-1.6V20.5H18.4v1.6A1.6,1.6,0,0,0,20,23.7h1.6a1.6,1.6,0,0,0,1.6-1.6V19.4a3.172,3.172,0,0,0,.8-2.1V14.9A3.193,3.193,0,0,0,21.933,11.917ZM6.6,9.208A2.4,2.4,0,0,1,8.825,7.7h6.35A2.4,2.4,0,0,1,17.4,9.208l1,2.491H5.6l1-2.491ZM4,17.29a1.509,1.509,0,0,1-1.6-1.6A1.509,1.509,0,0,1,4,14.1a3.078,3.078,0,0,1,2.4,2.393C6.4,17.449,4.96,17.29,4,17.29Zm16,0c-.96,0-2.4.16-2.4-.8A3.078,3.078,0,0,1,20,14.1a1.509,1.509,0,0,1,1.6,1.6,1.509,1.509,0,0,1-1.6,1.6Z" transform="translate(0 -4.5)" fill="#a9c667"/></svg>