<svg xmlns="http://www.w3.org/2000/svg" xmlns:xlink="http://www.w3.org/1999/xlink" width="24.109" height="27" viewBox="0 0 24.109 27"><defs><filter id="a" x="0" y="0" width="24.109" height="27" filterUnits="userSpaceOnUse"><feOffset dy="1" input="SourceAlpha"/><feGaussianBlur stdDeviation="0.5" result="b"/><feFlood flood-color="#331f00" flood-opacity="0.153"/><feComposite operator="in" in2="b"/><feComposite in="SourceGraphic"/></filter></defs><g transform="matrix(1, 0, 0, 1, 0, 0)" filter="url(#a)"><path d="M13.282,25.013A10.555,10.555,0,0,1,7.822,5.425,1.446,1.446,0,0,1,9.32,7.9a7.661,7.661,0,1,0,7.748-.1A1.446,1.446,0,1,1,18.5,5.282a10.555,10.555,0,0,1-5.217,19.731Zm-.11-10.7c-.8,0-1.765-.647-1.765-1.446V2.459c0-.8.967-1.446,1.765-1.446s1.765.647,1.765,1.446v10.41C14.937,13.667,13.97,14.314,13.172,14.314Z" transform="translate(-1.23 -0.51)" fill="#e8d35d"/></g></svg>