<svg xmlns="http://www.w3.org/2000/svg" xmlns:xlink="http://www.w3.org/1999/xlink" width="24" height="27" viewBox="0 0 24 27"><defs><filter id="a" x="0" y="0" width="24" height="27" filterUnits="userSpaceOnUse"><feOffset dy="1" input="SourceAlpha"/><feGaussianBlur stdDeviation="0.5" result="b"/><feFlood flood-color="#331f00" flood-opacity="0.153"/><feComposite operator="in" in2="b"/><feComposite in="SourceGraphic"/></filter></defs><g transform="matrix(1, 0, 0, 1, 0, 0)" filter="url(#a)"><path d="M15.167,2.4a28,28,0,0,0-2.635,2.811A36.369,36.369,0,0,0,7.875,0C3.269,4.274,0,9.842,0,13.2A10.653,10.653,0,0,0,10.5,24,10.653,10.653,0,0,0,21,13.2c0-2.5-2.437-7.647-5.833-10.8Zm-.913,15.968a6.3,6.3,0,0,1-3.62,1.132C7.252,19.5,4.5,17.262,4.5,13.629c0-1.81,1.14-3.4,3.412-6.129.325.374,4.633,5.875,4.633,5.875l2.748-3.135c.194.321.371.635.528.936A5.591,5.591,0,0,1,14.254,18.368Z" transform="translate(1.5 0.5)" fill="#e8d35d"/></g></svg>