<svg xmlns="http://www.w3.org/2000/svg" width="20.274" height="19.738" viewBox="0 0 20.274 19.738"><g transform="translate(-0.004 -6.78)"><path d="M16.8,16.654c0-.441-.007-.954-.011-1.434,0-.423-.006-.818-.009-1.115,0-.148,0-.272,0-.363,0-.045,0-.082,0-.111l0-.038c0-.012,0-.019,0-.047h0a3.756,3.756,0,0,0-.752-2.074,3.258,3.258,0,0,0-1.352-.955,5.029,5.029,0,0,0-.918-.256,2.275,2.275,0,0,0-3.606-2.742,2.275,2.275,0,0,0-3.606,2.746A4.779,4.779,0,0,0,5.4,10.6a3.057,3.057,0,0,0-1.555,1.517A4.407,4.407,0,0,0,3.5,13.544h0c0,.032,0,.037,0,.053,0,.1-.006.393-.009.8,0,.6-.01,1.437-.013,2.121,0,.049,0,.1,0,.145C1.928,17.976.069,19.343.006,21.527a4.65,4.65,0,0,0,4.306,4.662,41.576,41.576,0,0,0,5.829.329,41.563,41.563,0,0,0,5.828-.329,4.651,4.651,0,0,0,4.307-4.662C20.214,19.338,18.346,17.971,16.8,16.654Zm-.937-3.013h0ZM10.684,9.6c.015-.061.025-.119.035-.173v0l0-.017c0-.024.007-.046.01-.069v0a2.181,2.181,0,0,0,.018-.272c0-.08,0-.16-.012-.238h0V8.812l-.006-.04c-.008-.061-.016-.12-.029-.179v0l0-.014-.008-.028c-.015-.061-.03-.123-.048-.181h0v0a1.366,1.366,0,1,1,2,1.784c-.091,0-.183,0-.277,0H10.985a1.349,1.349,0,0,1-.347-.387c.006-.019.012-.036.019-.056,0,0,0-.006,0-.01.008-.028.015-.057.023-.087a.063.063,0,0,1,0-.01Zm2.2,9.025v.917h-1.89l-.2.314v.757h2.093v1.137H10.792V23.3h-1.3V21.746H7.4V20.609H9.491v-.755l-.2-.317H7.4V18.392H8.552L7.593,16.9H8.841l1.3,2.022,1.3-2.022H12.69l-.958,1.491h1.153Zm2.1-4.024c-.3-.647.358-2.458-2.808-2.458H8.11C4.944,12.138,5.6,13.95,5.3,14.6a4.475,4.475,0,0,1-.913,1.229c0-.309,0-.624.006-.915,0-.353,0-.671.006-.906,0-.117,0-.213,0-.282,0-.035,0-.061,0-.079v-.015a2.923,2.923,0,0,1,.5-1.521,2.24,2.24,0,0,1,.875-.678,4.683,4.683,0,0,1,1.742-.368.456.456,0,0,0,.22-.843A1.368,1.368,0,1,1,9.721,8.512l0,.008c0,.011.007.021.011.031a1.482,1.482,0,0,1,.069.222v.006l0,.007s0,.008,0,.012a1.358,1.358,0,0,1,.027.263,1.49,1.49,0,0,1-.011.158l-.01.061v0c-.006.038-.013.072-.02.1v0l-.016.058c-.009.03-.019.061-.03.093L9.726,9.6a1.382,1.382,0,0,1-.522.615l0,0a.379.379,0,0,0-.047.036l-.024.021a.432.432,0,0,0-.031.036l-.026.031c-.008.012-.014.026-.021.038s-.015.026-.02.038a.306.306,0,0,0-.012.038A.355.355,0,0,0,9,10.5a.273.273,0,0,0,0,.033.46.46,0,0,0-.006.058v0c0,.009,0,.019,0,.028A.428.428,0,0,0,9,10.682c0,.014.007.027.011.041a.411.411,0,0,0,.014.045.368.368,0,0,0,.022.045c.006.01.009.021.015.031a.015.015,0,0,1,0,0,.469.469,0,0,0,.031.038c.009.011.017.022.026.032s.02.016.03.025a.353.353,0,0,0,.038.031c.011.007.022.013.033.02s.028.016.043.022.027.009.04.014.029.01.045.014.023,0,.035,0a.506.506,0,0,0,.054.006h2.919c.132,0,.26,0,.387.011a4.926,4.926,0,0,1,1.582.3,2.478,2.478,0,0,1,.8.495,2.123,2.123,0,0,1,.564.908,4.149,4.149,0,0,1,.164.864c0,.007,0,.03,0,.063.006.286.012,1.221.019,2.121A4.444,4.444,0,0,1,14.981,14.6Z" transform="translate(0)" fill="#fff"/></g></svg>