<svg xmlns="http://www.w3.org/2000/svg" xmlns:xlink="http://www.w3.org/1999/xlink" width="20.998" height="27" viewBox="0 0 20.998 27"><defs><filter id="a" x="0" y="0" width="20.998" height="27" filterUnits="userSpaceOnUse"><feOffset dy="1" input="SourceAlpha"/><feGaussianBlur stdDeviation="0.5" result="b"/><feFlood flood-color="#331f00" flood-opacity="0.153"/><feComposite operator="in" in2="b"/><feComposite in="SourceGraphic"/></filter></defs><g transform="matrix(1, 0, 0, 1, 0, 0)" filter="url(#a)"><path d="M16.8.151,15,2.25l-2.55-2.1a.745.745,0,0,0-.9,0L9,2.25,6.449.151a.745.745,0,0,0-.9,0L3,2.25,1.2.151A.75.75,0,0,0,0,.75v22.5a.75.75,0,0,0,1.2.6l1.8-2.1,2.55,2.1a.745.745,0,0,0,.9,0L9,21.748l2.55,2.1a.745.745,0,0,0,.9,0l2.55-2.1,1.8,2.1a.75.75,0,0,0,1.2-.6V.75a.75.75,0,0,0-1.2-.6ZM15,16.874a.376.376,0,0,1-.375.375H3.375A.376.376,0,0,1,3,16.874v-.75a.376.376,0,0,1,.375-.375H14.623a.376.376,0,0,1,.375.375Zm0-4.5a.376.376,0,0,1-.375.375H3.375A.376.376,0,0,1,3,12.374v-.75a.376.376,0,0,1,.375-.375H14.623a.376.376,0,0,1,.375.375Zm0-4.5a.376.376,0,0,1-.375.375H3.375A.376.376,0,0,1,3,7.875v-.75a.376.376,0,0,1,.375-.375H14.623A.376.376,0,0,1,15,7.125Z" transform="translate(1.5 0.5)" fill="#949494"/></g></svg>