<svg xmlns="http://www.w3.org/2000/svg" xmlns:xlink="http://www.w3.org/1999/xlink" width="27" height="24.038" viewBox="0 0 27 24.038"><defs><filter id="a" x="0" y="0" width="27" height="24.038" filterUnits="userSpaceOnUse"><feOffset dy="1" input="SourceAlpha"/><feGaussianBlur stdDeviation="0.5" result="b"/><feFlood flood-color="#331f00" flood-opacity="0.161"/><feComposite operator="in" in2="b"/><feComposite in="SourceGraphic"/></filter></defs><g transform="matrix(1, 0, 0, 1, 0, 0)" filter="url(#a)"><path d="M24.667,8.44,22.7,23.863H16.054l-1.959-15.5h8.113l1.6-5.538.909.274-1.538,5.33,1.486.012ZM13.155,17.363s.248-2-3.2-2H4.469c-3.441,0-3.2,2-3.2,2H13.155Zm-11.883,4.5s-.243,2,3.2,2H9.958c3.446,0,3.2-2,3.2-2Zm11.367-1a1.15,1.15,0,0,0,1.019-1.25,1.148,1.148,0,0,0-1.019-1.25H1.74a1.151,1.151,0,0,0-1.02,1.25,1.152,1.152,0,0,0,1.02,1.25h10.9Z" transform="translate(0.78 -2.32)" fill="#ce4d4d"/></g></svg>