<svg xmlns="http://www.w3.org/2000/svg" xmlns:xlink="http://www.w3.org/1999/xlink" width="27" height="27" viewBox="0 0 27 27"><defs><filter id="a" x="0" y="0" width="27" height="27" filterUnits="userSpaceOnUse"><feOffset dy="1" input="SourceAlpha"/><feGaussianBlur stdDeviation="0.5" result="b"/><feFlood flood-color="#331f00" flood-opacity="0.153"/><feComposite operator="in" in2="b"/><feComposite in="SourceGraphic"/></filter></defs><g transform="matrix(1, 0, 0, 1, 0, 0)" filter="url(#a)"><path d="M24.219,12.219a12,12,0,1,1-12-12A12,12,0,0,1,24.219,12.219ZM12.541,4.186A6.267,6.267,0,0,0,6.9,7.272a.581.581,0,0,0,.131.787L8.712,9.331a.58.58,0,0,0,.806-.1c.864-1.1,1.457-1.732,2.773-1.732.989,0,2.211.636,2.211,1.595,0,.725-.6,1.1-1.574,1.644-1.138.638-2.644,1.432-2.644,3.419v.194a.581.581,0,0,0,.581.581h2.71a.581.581,0,0,0,.581-.581v-.065c0-1.377,4.025-1.435,4.025-5.161C18.179,6.315,15.268,4.186,12.541,4.186Zm-.322,12a2.226,2.226,0,1,0,2.226,2.226A2.228,2.228,0,0,0,12.219,16.186Z" transform="translate(1.28 0.28)" fill="#59941e"/></g></svg>