<svg xmlns="http://www.w3.org/2000/svg" xmlns:xlink="http://www.w3.org/1999/xlink" width="27" height="26.001" viewBox="0 0 27 26.001"><defs><filter id="a" x="0" y="0" width="27" height="26.001" filterUnits="userSpaceOnUse"><feOffset dy="1" input="SourceAlpha"/><feGaussianBlur stdDeviation="0.5" result="b"/><feFlood flood-color="#331f00" flood-opacity="0.153"/><feComposite operator="in" in2="b"/><feComposite in="SourceGraphic"/></filter></defs><g transform="matrix(1, 0, 0, 1, 0, 0)" filter="url(#a)"><path d="M20.181,14.484a.6.6,0,0,0,.627-.005c.115-.117.015-.3-.219-.409L16.5,12.176a1.432,1.432,0,0,0-.875-.063l-1.463.439a3.249,3.249,0,0,1-.72.136c-.147,0-.27-.207-.27-.461V7.767a.468.468,0,0,1,.471-.462h10.6a.467.467,0,0,0,.471-.462v-1.5a.661.661,0,0,0-.451-.594L13.1,1.494a1.881,1.881,0,0,0-.9,0L1.17,4.752a.662.662,0,0,0-.45.594v1.5a.467.467,0,0,0,.47.462H11.655a.468.468,0,0,1,.471.462v4.462a.468.468,0,0,1-.471.462h-.19a1.35,1.35,0,0,1-.808-.322L8.134,9.959a1.353,1.353,0,0,0-.809-.322H6.159A.912.912,0,0,1,5.468,9.3a.83.83,0,0,0-.624-.337c-.223,0-.291.174-.151.388l.022.034a.782.782,0,0,1,0,.78L3.456,12.125a.565.565,0,0,0,.1.7l.09.081a.736.736,0,0,0,.765.1l1.352-.7a.528.528,0,0,1,.67.172l1.484,2.271a.537.537,0,0,1-.1.688L7.131,16a.829.829,0,0,0-.256.749l.88,3.826a.458.458,0,0,0,.561.338l.612-.151a.48.48,0,0,0,.355-.564l-.6-2.588a.489.489,0,0,1,.351-.573l1.5-.4a4.291,4.291,0,0,1,.925-.121h.19a.467.467,0,0,1,.471.46v4.589a.467.467,0,0,1-.471.461H1.19a.467.467,0,0,0-.47.462v1.5a.467.467,0,0,0,.47.464H24.054a.467.467,0,0,0,.47-.463v-1.5a.467.467,0,0,0-.47-.462H13.645a.467.467,0,0,1-.471-.461V16.971a.467.467,0,0,1,.471-.46h.542a4.307,4.307,0,0,1,.924.121l1.5.4a.487.487,0,0,1,.351.573l-.594,2.588a.477.477,0,0,0,.353.564l.613.151a.458.458,0,0,0,.56-.338l.881-3.826a.816.816,0,0,0-.244-.741,1.214,1.214,0,0,1-.375-.751L18.082,13.9c-.015-.253.163-.368.4-.254Z" transform="translate(0.78 -0.94)" fill="#b364a0"/></g></svg>