<svg xmlns="http://www.w3.org/2000/svg" width="21" height="24" viewBox="0 0 21 24"><path d="M5.249,6A3.739,3.739,0,0,1,7.124,2.77V12h2.25V2.25h2.25V12h2.25V2.77A3.739,3.739,0,0,1,15.749,6v6H18V6a6,6,0,0,0-6-6H9A6,6,0,0,0,3,6v6h2.25ZM20.92,16.027l-.5-1.5A1.5,1.5,0,0,0,18.993,13.5H2A1.5,1.5,0,0,0,.576,14.527l-.5,1.5A1.5,1.5,0,0,0,1.5,18v5.25a.752.752,0,0,0,.75.75h1.5a.752.752,0,0,0,.75-.75V18h12v5.25a.752.752,0,0,0,.75.75h1.5a.752.752,0,0,0,.75-.75V18A1.5,1.5,0,0,0,20.92,16.027Z" transform="translate(0.002)" fill="#a9c667"/></svg>