<svg xmlns="http://www.w3.org/2000/svg" width="30" height="90" viewBox="0 0 30 90"><defs><style>.a{fill:#a3a3a3;}.b{fill:#fff;}.c{fill:#1c1c1c;}</style></defs><g transform="translate(-609.833 -866)"><path class="a" d="M29.063,25.333H3.75V5.542A.993.993,0,0,0,2.813,4.5H.938A.993.993,0,0,0,0,5.542V27.417A1.988,1.988,0,0,0,1.875,29.5H29.063A.993.993,0,0,0,30,28.458V26.375A.993.993,0,0,0,29.063,25.333ZM27.188,6.583H20.27a1.59,1.59,0,0,0-.994,2.667l1.9,2.109-4.3,4.777-4.3-4.777a1.745,1.745,0,0,0-2.651,0L5.9,15.833a1.125,1.125,0,0,0,0,1.473l1.325,1.473a.873.873,0,0,0,1.326,0l2.7-3,4.3,4.777a1.745,1.745,0,0,0,2.651,0l5.625-6.25,1.9,2.109a1.394,1.394,0,0,0,2.4-1.1V7.625A.993.993,0,0,0,27.188,6.583Z" transform="translate(609.833 861.5)"/><path class="b" d="M29.063,25.333H3.75V5.542A.993.993,0,0,0,2.813,4.5H.938A.993.993,0,0,0,0,5.542V27.417A1.988,1.988,0,0,0,1.875,29.5H29.063A.993.993,0,0,0,30,28.458V26.375A.993.993,0,0,0,29.063,25.333ZM27.188,6.583H20.27a1.59,1.59,0,0,0-.994,2.667l1.9,2.109-4.3,4.777-4.3-4.777a1.745,1.745,0,0,0-2.651,0L5.9,15.833a1.125,1.125,0,0,0,0,1.473l1.325,1.473a.873.873,0,0,0,1.326,0l2.7-3,4.3,4.777a1.745,1.745,0,0,0,2.651,0l5.625-6.25,1.9,2.109a1.394,1.394,0,0,0,2.4-1.1V7.625A.993.993,0,0,0,27.188,6.583Z" transform="translate(609.833 894.5)"/><path class="c" d="M29.063,25.333H3.75V5.542A.993.993,0,0,0,2.813,4.5H.938A.993.993,0,0,0,0,5.542V27.417A1.988,1.988,0,0,0,1.875,29.5H29.063A.993.993,0,0,0,30,28.458V26.375A.993.993,0,0,0,29.063,25.333ZM27.188,6.583H20.27a1.59,1.59,0,0,0-.994,2.667l1.9,2.109-4.3,4.777-4.3-4.777a1.745,1.745,0,0,0-2.651,0L5.9,15.833a1.125,1.125,0,0,0,0,1.473l1.325,1.473a.873.873,0,0,0,1.326,0l2.7-3,4.3,4.777a1.745,1.745,0,0,0,2.651,0l5.625-6.25,1.9,2.109a1.394,1.394,0,0,0,2.4-1.1V7.625A.993.993,0,0,0,27.188,6.583Z" transform="translate(609.833 926.5)"/></g></svg>