<svg xmlns="http://www.w3.org/2000/svg" width="30" height="89.996" viewBox="0 0 30 89.996"><defs><style>.a{fill:#1c1c1c;}.b{fill:#a3a3a3;}.c{fill:#fff;}</style></defs><g transform="translate(-581.301 -866)"><path class="a" d="M17.035,5.463l7.5,7.5L8.248,29.252l-6.688.738A1.406,1.406,0,0,1,.008,28.437l.744-6.692L17.035,5.463Zm12.14-1.117L25.653.824a2.814,2.814,0,0,0-3.979,0L18.361,4.138l7.5,7.5,3.313-3.313a2.814,2.814,0,0,0,0-3.979Z" transform="translate(581.302 925.997)"/><path class="b" d="M17.035,5.463l7.5,7.5L8.248,29.252l-6.688.738A1.406,1.406,0,0,1,.008,28.437l.744-6.692L17.035,5.463Zm12.14-1.117L25.653.824a2.814,2.814,0,0,0-3.979,0L18.361,4.138l7.5,7.5,3.313-3.313a2.814,2.814,0,0,0,0-3.979Z" transform="translate(581.302 865.999)"/><path class="c" d="M17.035,5.463l7.5,7.5L8.248,29.252l-6.688.738A1.406,1.406,0,0,1,.008,28.437l.744-6.692L17.035,5.463Zm12.14-1.117L25.653.824a2.814,2.814,0,0,0-3.979,0L18.361,4.138l7.5,7.5,3.313-3.313a2.814,2.814,0,0,0,0-3.979Z" transform="translate(581.302 895.998)"/></g></svg>