<svg xmlns="http://www.w3.org/2000/svg" width="30" height="90.125" viewBox="0 0 30 90.125"><defs><style>.a{fill:#a3a3a3;}.b{fill:#1c1c1c;}.c{fill:#fff;}</style></defs><g transform="translate(-676.654 -866)"><path class="a" d="M30.562,15.534A15,15,0,0,1,6.149,27.241a1.451,1.451,0,0,1-.111-2.154l.681-.681a1.454,1.454,0,0,1,1.929-.12,11.13,11.13,0,1,0-.71-16.833l3.07,3.07a.968.968,0,0,1-.684,1.652H1.53a.968.968,0,0,1-.968-.968V2.415a.968.968,0,0,1,1.652-.684L5.2,4.717A15,15,0,0,1,30.562,15.534ZM19.62,20.3l.594-.764A1.452,1.452,0,0,0,19.96,17.5L17.5,15.584V9.272a1.452,1.452,0,0,0-1.452-1.452h-.968a1.452,1.452,0,0,0-1.452,1.452v8.2l3.956,3.077A1.452,1.452,0,0,0,19.62,20.3Z" transform="translate(676.091 865.438)"/><path class="b" d="M30.562,15.534A15,15,0,0,1,6.149,27.241a1.451,1.451,0,0,1-.111-2.154l.681-.681a1.454,1.454,0,0,1,1.929-.12,11.13,11.13,0,1,0-.71-16.833l3.07,3.07a.968.968,0,0,1-.684,1.652H1.53a.968.968,0,0,1-.968-.968V2.415a.968.968,0,0,1,1.652-.684L5.2,4.717A15,15,0,0,1,30.562,15.534ZM19.62,20.3l.594-.764A1.452,1.452,0,0,0,19.96,17.5L17.5,15.584V9.272a1.452,1.452,0,0,0-1.452-1.452h-.968a1.452,1.452,0,0,0-1.452,1.452v8.2l3.956,3.077A1.452,1.452,0,0,0,19.62,20.3Z" transform="translate(676.091 925.562)"/><path class="c" d="M30.562,15.534A15,15,0,0,1,6.149,27.241a1.451,1.451,0,0,1-.111-2.154l.681-.681a1.454,1.454,0,0,1,1.929-.12,11.13,11.13,0,1,0-.71-16.833l3.07,3.07a.968.968,0,0,1-.684,1.652H1.53a.968.968,0,0,1-.968-.968V2.415a.968.968,0,0,1,1.652-.684L5.2,4.717A15,15,0,0,1,30.562,15.534ZM19.62,20.3l.594-.764A1.452,1.452,0,0,0,19.96,17.5L17.5,15.584V9.272a1.452,1.452,0,0,0-1.452-1.452h-.968a1.452,1.452,0,0,0-1.452,1.452v8.2l3.956,3.077A1.452,1.452,0,0,0,19.62,20.3Z" transform="translate(676.091 895.562)"/></g></svg>