<svg xmlns="http://www.w3.org/2000/svg" width="30" height="90" viewBox="0 0 30 90"><defs><style>.a{fill:#a3a3a3;}.b{fill:#fff;}</style></defs><g transform="translate(-701.225 -859.875)"><path class="a" d="M29.766,19.875a9.381,9.381,0,0,0,.076-1.5c0-.525-.076-.975-.076-1.5L32.988,14.4a.689.689,0,0,0,.154-.975L30.073,8.25a.747.747,0,0,0-.921-.3l-3.835,1.5a11.165,11.165,0,0,0-2.608-1.5l-.537-3.975a.822.822,0,0,0-.767-.6H15.268a.822.822,0,0,0-.767.6L13.887,7.95a12.99,12.99,0,0,0-2.608,1.5L7.443,7.95a.718.718,0,0,0-.921.3L3.454,13.425a.906.906,0,0,0,.154.975l3.3,2.475c0,.525-.076.975-.076,1.5s.076.975.076,1.5L3.685,22.35a.689.689,0,0,0-.154.975L6.6,28.5a.747.747,0,0,0,.921.3l3.836-1.5a11.163,11.163,0,0,0,2.608,1.5l.614,3.975a.744.744,0,0,0,.767.6h6.137a.822.822,0,0,0,.767-.6l.614-3.975a12.982,12.982,0,0,0,2.608-1.5l3.836,1.5a.719.719,0,0,0,.921-.3L33.3,23.325a.9.9,0,0,0-.154-.975Zm-11.43,3.75a5.251,5.251,0,1,1,0-10.5,5.251,5.251,0,1,1,0,10.5Z" transform="translate(697.85 856.5)"/><path d="M29.766,19.875a9.381,9.381,0,0,0,.076-1.5c0-.525-.076-.975-.076-1.5L32.988,14.4a.689.689,0,0,0,.154-.975L30.073,8.25a.747.747,0,0,0-.921-.3l-3.835,1.5a11.165,11.165,0,0,0-2.608-1.5l-.537-3.975a.822.822,0,0,0-.767-.6H15.268a.822.822,0,0,0-.767.6L13.887,7.95a12.99,12.99,0,0,0-2.608,1.5L7.443,7.95a.718.718,0,0,0-.921.3L3.454,13.425a.906.906,0,0,0,.154.975l3.3,2.475c0,.525-.076.975-.076,1.5s.076.975.076,1.5L3.685,22.35a.689.689,0,0,0-.154.975L6.6,28.5a.747.747,0,0,0,.921.3l3.836-1.5a11.163,11.163,0,0,0,2.608,1.5l.614,3.975a.744.744,0,0,0,.767.6h6.137a.822.822,0,0,0,.767-.6l.614-3.975a12.982,12.982,0,0,0,2.608-1.5l3.836,1.5a.719.719,0,0,0,.921-.3L33.3,23.325a.9.9,0,0,0-.154-.975Zm-11.43,3.75a5.251,5.251,0,1,1,0-10.5,5.251,5.251,0,1,1,0,10.5Z" transform="translate(697.85 916.5)"/><path class="b" d="M29.766,19.875a9.381,9.381,0,0,0,.076-1.5c0-.525-.076-.975-.076-1.5L32.988,14.4a.689.689,0,0,0,.154-.975L30.073,8.25a.747.747,0,0,0-.921-.3l-3.835,1.5a11.165,11.165,0,0,0-2.608-1.5l-.537-3.975a.822.822,0,0,0-.767-.6H15.268a.822.822,0,0,0-.767.6L13.887,7.95a12.99,12.99,0,0,0-2.608,1.5L7.443,7.95a.718.718,0,0,0-.921.3L3.454,13.425a.906.906,0,0,0,.154.975l3.3,2.475c0,.525-.076.975-.076,1.5s.076.975.076,1.5L3.685,22.35a.689.689,0,0,0-.154.975L6.6,28.5a.747.747,0,0,0,.921.3l3.836-1.5a11.163,11.163,0,0,0,2.608,1.5l.614,3.975a.744.744,0,0,0,.767.6h6.137a.822.822,0,0,0,.767-.6l.614-3.975a12.982,12.982,0,0,0,2.608-1.5l3.836,1.5a.719.719,0,0,0,.921-.3L33.3,23.325a.9.9,0,0,0-.154-.975Zm-11.43,3.75a5.251,5.251,0,1,1,0-10.5,5.251,5.251,0,1,1,0,10.5Z" transform="translate(697.85 886.5)"/></g></svg>