<svg xmlns="http://www.w3.org/2000/svg" width="27.694" height="20.687" viewBox="0 0 27.694 20.687"><g transform="translate(-0.5 -5)"><path d="M9.675,5H24.858a3.34,3.34,0,0,1,3.336,3.336V22.351a3.34,3.34,0,0,1-3.336,3.336H9.675a1,1,0,0,1-.753-.341L.747,16a1,1,0,0,1,0-1.317L8.923,5.342A1,1,0,0,1,9.675,5ZM24.858,23.687a1.337,1.337,0,0,0,1.336-1.336V8.336A1.337,1.337,0,0,0,24.858,7H10.129l-7.3,8.343,7.3,8.343Z" transform="translate(0 0)" fill="#2e2e2e"/><path d="M18,21.473a1,1,0,0,1-.707-1.707l6.973-6.973a1,1,0,0,1,1.414,1.414L18.707,21.18A1,1,0,0,1,18,21.473Z" transform="translate(-3.629 -1.643)" fill="#2e2e2e"/><path d="M24.973,21.473a1,1,0,0,1-.707-.293l-6.973-6.973a1,1,0,1,1,1.414-1.414l6.973,6.973a1,1,0,0,1-.707,1.707Z" transform="translate(-3.629 -1.643)" fill="#2e2e2e"/></g></svg>